<svg xmlns="http://www.w3.org/2000/svg" viewBox="0 0 1280 640">
  <defs>
    <radialGradient id="glow" cx="640" cy="320" r="280" gradientUnits="userSpaceOnUse">
      <stop offset="0%" stop-color="#00D4AA" stop-opacity="0.25"/>
      <stop offset="50%" stop-color="#00D4AA" stop-opacity="0.08"/>
      <stop offset="100%" stop-color="#00D4AA" stop-opacity="0"/>
    </radialGradient>
  </defs>

  <!-- Layer 1: Background grid (teal) -->
  <g stroke="#00D4AA" stroke-width="0.5" opacity="0.05">
    <line x1="80" y1="0" x2="80" y2="640"/>
    <line x1="160" y1="0" x2="160" y2="640"/>
    <line x1="240" y1="0" x2="240" y2="640"/>
    <line x1="320" y1="0" x2="320" y2="640"/>
    <line x1="400" y1="0" x2="400" y2="640"/>
    <line x1="480" y1="0" x2="480" y2="640"/>
    <line x1="560" y1="0" x2="560" y2="640"/>
    <line x1="640" y1="0" x2="640" y2="640"/>
    <line x1="720" y1="0" x2="720" y2="640"/>
    <line x1="800" y1="0" x2="800" y2="640"/>
    <line x1="880" y1="0" x2="880" y2="640"/>
    <line x1="960" y1="0" x2="960" y2="640"/>
    <line x1="1040" y1="0" x2="1040" y2="640"/>
    <line x1="1120" y1="0" x2="1120" y2="640"/>
    <line x1="1200" y1="0" x2="1200" y2="640"/>
    <line x1="0" y1="80" x2="1280" y2="80"/>
    <line x1="0" y1="160" x2="1280" y2="160"/>
    <line x1="0" y1="240" x2="1280" y2="240"/>
    <line x1="0" y1="320" x2="1280" y2="320"/>
    <line x1="0" y1="400" x2="1280" y2="400"/>
    <line x1="0" y1="480" x2="1280" y2="480"/>
    <line x1="0" y1="560" x2="1280" y2="560"/>
  </g>

  <!-- Layer 2: Storage topology (left) -->
  <g>
    <g stroke="#00D4AA" fill="none">
      <line x1="100" y1="120" x2="200" y2="140" stroke-width="1" opacity="0.25"/>
      <line x1="200" y1="140" x2="320" y2="120" stroke-width="1" opacity="0.3"/>
      <line x1="320" y1="120" x2="380" y2="180" stroke-width="1.2" opacity="0.3"/>
      <line x1="100" y1="120" x2="80" y2="220" stroke-width="1" opacity="0.2"/>
      <line x1="200" y1="140" x2="200" y2="240" stroke-width="1" opacity="0.25"/>
      <line x1="80" y1="220" x2="160" y2="260" stroke-width="1" opacity="0.25"/>
      <line x1="200" y1="240" x2="160" y2="260" stroke-width="1" opacity="0.25"/>
      <line x1="200" y1="240" x2="300" y2="240" stroke-width="1.2" opacity="0.3"/>
      <line x1="300" y1="240" x2="380" y2="180" stroke-width="1" opacity="0.25"/>
      <line x1="160" y1="260" x2="280" y2="300" stroke-width="1.2" opacity="0.3"/>
      <line x1="300" y1="240" x2="400" y2="280" stroke-width="1.5" opacity="0.35"/>
      <line x1="280" y1="300" x2="400" y2="280" stroke-width="1.5" opacity="0.35"/>
      <line x1="400" y1="280" x2="420" y2="340" stroke-width="1.5" opacity="0.35"/>
      <line x1="280" y1="300" x2="320" y2="380" stroke-width="1" opacity="0.25"/>
      <line x1="160" y1="260" x2="120" y2="380" stroke-width="1" opacity="0.2"/>
      <line x1="120" y1="380" x2="220" y2="400" stroke-width="1" opacity="0.25"/>
      <line x1="320" y1="380" x2="220" y2="400" stroke-width="1" opacity="0.25"/>
      <line x1="320" y1="380" x2="420" y2="340" stroke-width="1.2" opacity="0.3"/>
      <line x1="420" y1="340" x2="440" y2="420" stroke-width="1.2" opacity="0.3"/>
      <line x1="220" y1="400" x2="280" y2="480" stroke-width="1" opacity="0.2"/>
      <line x1="120" y1="380" x2="100" y2="480" stroke-width="1" opacity="0.15"/>
      <line x1="100" y1="480" x2="280" y2="480" stroke-width="1" opacity="0.15"/>
      <line x1="280" y1="480" x2="440" y2="420" stroke-width="1" opacity="0.2"/>
      <line x1="420" y1="340" x2="500" y2="320" stroke-width="1.5" opacity="0.35"/>
      <line x1="380" y1="180" x2="480" y2="250" stroke-width="1.2" opacity="0.3"/>
      <line x1="440" y1="420" x2="500" y2="380" stroke-width="1.2" opacity="0.3"/>
    </g>
    <!-- Disk stacks -->
    <g fill="none" stroke="#00D4AA">
      <ellipse cx="100" cy="115" rx="12" ry="4" stroke-width="1" opacity="0.3"/>
      <line x1="88" y1="115" x2="88" y2="125" stroke-width="1" opacity="0.25"/>
      <line x1="112" y1="115" x2="112" y2="125" stroke-width="1" opacity="0.25"/>
      <ellipse cx="100" cy="125" rx="12" ry="4" stroke-width="1" opacity="0.3"/>
      <ellipse cx="320" cy="115" rx="12" ry="4" stroke-width="1" opacity="0.3"/>
      <line x1="308" y1="115" x2="308" y2="125" stroke-width="1" opacity="0.25"/>
      <line x1="332" y1="115" x2="332" y2="125" stroke-width="1" opacity="0.25"/>
      <ellipse cx="320" cy="125" rx="12" ry="4" stroke-width="1" opacity="0.3"/>
      <ellipse cx="160" cy="255" rx="12" ry="4" stroke-width="1.2" opacity="0.35"/>
      <line x1="148" y1="255" x2="148" y2="265" stroke-width="1.2" opacity="0.3"/>
      <line x1="172" y1="255" x2="172" y2="265" stroke-width="1.2" opacity="0.3"/>
      <ellipse cx="160" cy="265" rx="12" ry="4" stroke-width="1.2" opacity="0.35"/>
      <ellipse cx="220" cy="395" rx="12" ry="4" stroke-width="1" opacity="0.25"/>
      <line x1="208" y1="395" x2="208" y2="405" stroke-width="1" opacity="0.2"/>
      <line x1="232" y1="395" x2="232" y2="405" stroke-width="1" opacity="0.2"/>
      <ellipse cx="220" cy="405" rx="12" ry="4" stroke-width="1" opacity="0.25"/>
    </g>
    <g fill="#00D4AA">
      <circle cx="200" cy="140" r="5" opacity="0.3"/>
      <circle cx="380" cy="180" r="5" opacity="0.3"/>
      <rect x="76" y="216" width="8" height="8" opacity="0.25"/>
      <circle cx="200" cy="240" r="5" opacity="0.3"/>
      <rect x="296" y="236" width="8" height="8" opacity="0.3"/>
      <circle cx="280" cy="300" r="6" opacity="0.35"/>
      <circle cx="400" cy="280" r="7" opacity="0.4"/>
      <circle cx="420" cy="340" r="7" opacity="0.4"/>
      <circle cx="320" cy="380" r="5" opacity="0.3"/>
      <rect x="116" y="376" width="8" height="8" opacity="0.25"/>
      <circle cx="440" cy="420" r="5" opacity="0.3"/>
      <circle cx="100" cy="480" r="4" opacity="0.15"/>
      <circle cx="280" cy="480" r="4" opacity="0.2"/>
    </g>
  </g>

  <!-- Layer 3: Center convergence + knot -->
  <circle cx="640" cy="320" r="280" fill="url(#glow)"/>

  <g fill="none" stroke="#00D4AA">
    <path d="M 480,250 C 520,260 570,285 605,305" stroke-width="1.5" opacity="0.25"/>
    <path d="M 500,320 C 535,318 575,318 605,320" stroke-width="2" opacity="0.35"/>
    <path d="M 500,380 C 535,370 575,345 605,335" stroke-width="1.5" opacity="0.3"/>
    <path d="M 480,200 C 530,220 575,270 605,295" stroke-width="1.2" opacity="0.2"/>
    <path d="M 675,320 C 710,318 760,315 810,310" stroke-width="2" opacity="0.35"/>
    <path d="M 675,305 C 720,290 770,260 830,240" stroke-width="1.5" opacity="0.25"/>
    <path d="M 675,335 C 720,350 770,380 830,400" stroke-width="1.5" opacity="0.25"/>
    <path d="M 670,290 C 700,260 750,220 820,180" stroke-width="1.2" opacity="0.2"/>
    <path d="M 670,350 C 700,380 750,430 820,470" stroke-width="1.2" opacity="0.2"/>
  </g>

  <!-- Hard drive icon -->
  <g>
    <!-- Drive body (rounded rectangle) -->
    <rect x="596" y="280" width="88" height="80" rx="10"
          stroke="#00D4AA" stroke-width="3" fill="#00D4AA" fill-opacity="0.12" opacity="0.8"/>
    <!-- Horizontal divider line -->
    <line x1="596" y1="336" x2="684" y2="336" stroke="#00D4AA" stroke-width="2" opacity="0.5"/>
    <!-- LED indicator dots (bottom section) -->
    <circle cx="666" cy="350" r="4" fill="#00D4AA" opacity="0.7"/>
    <circle cx="652" cy="350" r="4" fill="#00D4AA" opacity="0.45"/>
    <!-- Drive platter lines (top section) -->
    <line x1="616" y1="300" x2="664" y2="300" stroke="#00D4AA" stroke-width="2" stroke-linecap="round" opacity="0.35"/>
    <line x1="616" y1="310" x2="664" y2="310" stroke="#00D4AA" stroke-width="2" stroke-linecap="round" opacity="0.3"/>
    <line x1="616" y1="320" x2="664" y2="320" stroke="#00D4AA" stroke-width="2" stroke-linecap="round" opacity="0.25"/>
  </g>

  <circle cx="640" cy="320" r="70" stroke="#00D4AA" stroke-width="0.8" fill="none" opacity="0.15"/>
  <circle cx="640" cy="320" r="95" stroke="#00D4AA" stroke-width="0.5" fill="none" opacity="0.08"/>

  <!-- Layer 4: Data streams / backup paths (right) -->
  <g fill="none" stroke="#00D4AA">
    <path d="M 880,180 C 920,170 980,190 1020,160 C 1060,130 1100,150 1160,140 C 1200,134 1240,148 1270,138"
          stroke-width="1.2" opacity="0.2"/>
    <path d="M 830,240 C 880,230 930,260 980,240 C 1040,216 1080,250 1140,230 C 1180,218 1230,240 1280,225"
          stroke-width="1.5" opacity="0.25"/>
    <path d="M 810,310 C 870,305 920,320 970,310 C 1030,298 1080,325 1130,315 C 1180,305 1220,320 1280,312"
          stroke-width="2" opacity="0.3"/>
    <path d="M 830,400 C 880,410 930,390 980,405 C 1040,422 1080,395 1140,410 C 1190,420 1230,400 1280,408"
          stroke-width="1.5" opacity="0.25"/>
    <path d="M 880,460 C 930,475 980,450 1030,470 C 1080,490 1130,460 1180,475 C 1220,486 1250,470 1280,478"
          stroke-width="1.2" opacity="0.2"/>
    <path d="M 920,530 C 970,520 1020,540 1070,525 C 1120,510 1170,535 1220,520 C 1250,512 1270,525 1280,520"
          stroke-width="1" opacity="0.15"/>
    <path d="M 850,270 C 910,280 960,255 1010,275 C 1060,295 1110,265 1160,280"
          stroke-width="1" stroke-dasharray="10 8" opacity="0.18"/>
    <path d="M 850,370 C 910,360 960,380 1010,365 C 1060,350 1110,375 1160,360"
          stroke-width="1" stroke-dasharray="10 8" opacity="0.18"/>
    <path d="M 900,120 C 950,140 1000,115 1060,130 C 1120,145 1180,120 1240,135"
          stroke-width="1" opacity="0.12"/>
    <path d="M 900,560 C 960,545 1020,565 1080,550 C 1140,535 1200,555 1260,545"
          stroke-width="1" opacity="0.1"/>
    <path d="M 940,200 C 990,215 1040,195 1100,210" stroke-width="0.8" opacity="0.12"/>
    <path d="M 940,440 C 990,425 1040,445 1100,430" stroke-width="0.8" opacity="0.12"/>
  </g>
</svg>