<svg xmlns="http://www.w3.org/2000/svg" viewBox="0 0 32 32">
<defs><linearGradient id="g" x2="1"><stop stop-color="#006FFF"/><stop offset="1" stop-color="#00D4AA"/></linearGradient></defs>
<g stroke="url(#g)" fill="none" stroke-linecap="round">
<path d="M5 11.6C8 11.6 9.2 13.6 11.2 14.8Q16 18 20.8 14.8C22.8 13.6 24 11.6 27 11.6" stroke-width="3"/>
<path d="M5 16C8.2 16 9.2 19.2 11.6 19.2 13.2 19.2 14.4 17.2 16 16 17.6 14.8 18.8 12.8 20.4 12.8 22.8 12.8 23.8 16 27 16" stroke-width="3"/>
<path d="M5 20.4C8 20.4 9.2 18.4 11.2 17.2Q16 14 20.8 17.2C22.8 18.4 24 20.4 27 20.4" stroke-width="3"/>
<path d="M9.4 12.8C10.2 13.6 11 14.4 11.6 15" stroke-width="4"/>
<path d="M22.4 18.4C21.6 17.6 21 17.2 20.4 16.8" stroke-width="4"/>
<path d="M19.6 13.2C20 12.8 20.6 12.8 21.2 13.2" stroke-width="4"/>
<path d="M10.8 18.8C11.2 19.2 11.8 19.2 12.4 18.8" stroke-width="4"/>
</g>
</svg>
